<svg width="45" height="43" viewBox="0 0 45 43" fill="none" xmlns="http://www.w3.org/2000/svg">
<path d="M42.3885 0.65625H13.46C12.9804 0.65625 12.5206 0.841448 12.1815 1.1711C11.8424 1.50076 11.6519 1.94786 11.6519 2.41406V11.2031H2.61175C2.13223 11.2031 1.67235 11.3883 1.33327 11.718C0.9942 12.0476 0.803711 12.4947 0.803711 12.9609V41.0859C0.803711 41.5521 0.9942 41.9992 1.33327 42.3289C1.67235 42.6586 2.13223 42.8438 2.61175 42.8438H31.5403C32.0198 42.8438 32.4797 42.6586 32.8188 42.3289C33.1579 41.9992 33.3484 41.5521 33.3484 41.0859V32.2969H42.3885C42.8681 32.2969 43.3279 32.1117 43.667 31.782C44.0061 31.4524 44.1966 31.0053 44.1966 30.5391V2.41406C44.1966 1.94786 44.0061 1.50076 43.667 1.1711C43.3279 0.841448 42.8681 0.65625 42.3885 0.65625ZM29.7323 39.3281H4.41978V14.7188H29.7323V39.3281ZM40.5805 28.7812H33.3484V12.9609C33.3484 12.4947 33.1579 12.0476 32.8188 11.718C32.4797 11.3883 32.0198 11.2031 31.5403 11.2031H15.268V4.17188H40.5805V28.7812Z" fill="black"/>
</svg>
