<svg width="45" height="44" viewBox="0 0 45 44" fill="none" xmlns="http://www.w3.org/2000/svg">
<path d="M22.5 0.342285C10.0716 0.342285 0 10.0395 0 22C0 33.9605 10.0716 43.6578 22.5 43.6578C34.9284 43.6578 45 33.9605 45 22C45 10.0395 34.9284 0.342285 22.5 0.342285ZM32.9259 28.2077C33.4533 28.7153 33.7496 29.4038 33.7496 30.1217C33.7496 30.8396 33.4533 31.5281 32.9259 32.0357C32.3986 32.5433 31.6833 32.8285 30.9375 32.8285C30.1917 32.8285 29.4764 32.5433 28.9491 32.0357L22.5 25.828L16.0509 32.0357C15.7903 32.288 15.4805 32.4882 15.1393 32.6248C14.798 32.7614 14.4321 32.8317 14.0625 32.8317C13.6929 32.8317 13.327 32.7614 12.9857 32.6248C12.6445 32.4882 12.3347 32.288 12.0741 32.0357C11.8127 31.7845 11.6053 31.4862 11.4638 31.1577C11.3223 30.8293 11.2494 30.4772 11.2494 30.1217C11.2494 29.7661 11.3223 29.4141 11.4638 29.0857C11.6053 28.7572 11.8127 28.4589 12.0741 28.2077L18.5231 22L12.0741 15.7924C11.5467 15.2848 11.2504 14.5963 11.2504 13.8784C11.2504 13.1605 11.5467 12.472 12.0741 11.9644C12.6014 11.4568 13.3167 11.1716 14.0625 11.1716C14.8083 11.1716 15.5236 11.4568 16.0509 11.9644L22.5 18.172L28.9491 11.9644C29.4764 11.4568 30.1917 11.1716 30.9375 11.1716C31.6833 11.1716 32.3986 11.4568 32.9259 11.9644C33.4533 12.472 33.7496 13.1605 33.7496 13.8784C33.7496 14.5963 33.4533 15.2848 32.9259 15.7924L26.4769 22L32.9259 28.2077Z" fill="#AA0000"/>
</svg>
