<svg width="1440" height="1024" viewBox="0 0 1440 1024" fill="none" xmlns="http://www.w3.org/2000/svg">
<path d="M151.5 343C-22.5 387.4 23.6667 209.5 68.5 115C181.7 -223.4 63.3333 -92.0001 -10 15.9999L-28 898.5C222.667 838.667 652.3 639.6 365.5 322C7 -75.0001 369 287.5 151.5 343Z" fill="#0A6CFF"/>
<path d="M473.5 188.5C13.1 131.7 604 -25.1667 957 -96.5001C1667.8 150.3 1785.5 503 1755.5 648.5C1437 1002.67 792.9 1586.4 764.5 1088C729 465 717 449.5 1370 533C2023 616.5 1049 259.5 473.5 188.5Z" fill="#0A6CFF"/>
<path d="M151.5 343C-22.5 387.4 23.6667 209.5 68.5 115C181.7 -223.4 63.3333 -92.0001 -10 15.9999L-28 898.5C222.667 838.667 652.3 639.6 365.5 322C7 -75.0001 369 287.5 151.5 343Z" stroke="black"/>
<path d="M473.5 188.5C13.1 131.7 604 -25.1667 957 -96.5001C1667.8 150.3 1785.5 503 1755.5 648.5C1437 1002.67 792.9 1586.4 764.5 1088C729 465 717 449.5 1370 533C2023 616.5 1049 259.5 473.5 188.5Z" stroke="black"/>
</svg>
