<svg width="64" height="64" viewBox="0 0 64 64" fill="none" xmlns="http://www.w3.org/2000/svg">
<path fill-rule="evenodd" clip-rule="evenodd" d="M31.9998 6.49253C27.5385 6.49172 23.1549 7.66105 19.2867 9.88381C15.4185 12.1066 12.201 15.305 9.95523 19.1599C7.70947 23.0148 6.51406 27.3913 6.48832 31.8526C6.46257 36.3139 7.60739 40.7039 9.80851 44.5844C11.2963 42.6509 13.2087 41.0854 15.3981 40.009C17.5874 38.9326 19.995 38.374 22.4346 38.3766H41.565C44.0047 38.374 46.4122 38.9326 48.6016 40.009C50.7909 41.0854 52.7034 42.6509 54.1911 44.5844C56.3922 40.7039 57.5371 36.3139 57.5113 31.8526C57.4856 27.3913 56.2902 23.0148 54.0444 19.1599C51.7986 15.305 48.5811 12.1066 44.7129 9.88381C40.8447 7.66105 36.4612 6.49172 31.9998 6.49253ZM57.3253 51.3725C61.5883 45.815 63.8942 39.004 63.8839 31.9998C63.8839 14.3902 49.6094 0.115723 31.9998 0.115723C14.3903 0.115723 0.115759 14.3902 0.115759 31.9998C0.105232 39.004 2.41111 45.8152 6.67431 51.3725L6.65837 51.4299L7.79025 52.7467C10.7806 56.2429 14.4935 59.049 18.673 60.9717C22.8525 62.8944 27.3993 63.8879 31.9998 63.8838C38.4638 63.8958 44.777 61.9322 50.094 58.2563C52.3607 56.6902 54.4161 54.8384 56.2094 52.7467L57.3413 51.4299L57.3253 51.3725ZM31.9998 12.8693C29.463 12.8693 27.03 13.8771 25.2362 15.6709C23.4424 17.4648 22.4346 19.8977 22.4346 22.4346C22.4346 24.9714 23.4424 27.4044 25.2362 29.1982C27.03 30.992 29.463 31.9998 31.9998 31.9998C34.5367 31.9998 36.9696 30.992 38.7634 29.1982C40.5573 27.4044 41.565 24.9714 41.565 22.4346C41.565 19.8977 40.5573 17.4648 38.7634 15.6709C36.9696 13.8771 34.5367 12.8693 31.9998 12.8693Z" fill="#00337F"/>
</svg>
