<svg width="45" height="46" viewBox="0 0 45 46" fill="none" xmlns="http://www.w3.org/2000/svg">
<path d="M22.5 45.5C16.75 45.5 11.7392 43.5933 7.4675 39.78C3.19583 35.9667 0.748333 31.2067 0.125 25.5H5.25C5.83333 29.8333 7.76083 33.4167 11.0325 36.25C14.3042 39.0833 18.1267 40.5 22.5 40.5C27.375 40.5 31.5108 38.8017 34.9075 35.405C38.3042 32.0083 40.0017 27.8733 40 23C40 18.125 38.3017 13.9892 34.905 10.5925C31.5083 7.19583 27.3733 5.49833 22.5 5.5C19.625 5.5 16.9375 6.16667 14.4375 7.5C11.9375 8.83333 9.83333 10.6667 8.125 13H15V18H0V3H5V8.875C7.125 6.20833 9.71917 4.14583 12.7825 2.6875C15.8458 1.22917 19.085 0.5 22.5 0.5C25.625 0.5 28.5525 1.09417 31.2825 2.2825C34.0125 3.47083 36.3875 5.07417 38.4075 7.0925C40.4275 9.11417 42.0317 11.4892 43.22 14.2175C44.4083 16.9458 45.0017 19.8733 45 23C45 26.125 44.4058 29.0525 43.2175 31.7825C42.0292 34.5125 40.4258 36.8875 38.4075 38.9075C36.3858 40.9275 34.0108 42.5317 31.2825 43.72C28.5542 44.9083 25.6267 45.5017 22.5 45.5ZM29.5 33.5L20 24V10.5H25V22L33 30L29.5 33.5Z" fill="#00337F"/>
</svg>
