<svg width="45" height="44" viewBox="0 0 45 44" fill="none" xmlns="http://www.w3.org/2000/svg">
<path d="M42.6967 3.27731C41.9275 2.51595 41.0041 1.90716 39.981 1.48682C38.9579 1.06647 37.8558 0.843055 36.7395 0.829735C35.6233 0.816414 34.5155 1.01346 33.4814 1.40926C32.4473 1.80505 31.5078 2.39161 30.7183 3.13437L4.35112 27.9505C3.42951 28.8177 2.78952 29.914 2.50612 31.1111L0.0395552 41.567C-0.0119144 41.7843 -0.00431757 42.0103 0.0616418 42.2241C0.127601 42.4379 0.249792 42.6326 0.416907 42.7901C0.584022 42.9477 0.790662 43.063 1.0177 43.1254C1.24475 43.1879 1.48485 43.1954 1.71581 43.1473L12.7605 40.8364C14.0752 40.561 15.2791 39.9384 16.2311 39.0417L42.5505 14.2705C44.0932 12.8179 44.9719 10.8556 44.9992 8.80192C45.0265 6.74826 44.2003 4.76581 42.6967 3.27731ZM32.7067 5.00584C33.2212 4.51467 33.8338 4.12415 34.5093 3.85679C35.1848 3.58944 35.9099 3.45052 36.6426 3.44805C37.3754 3.44557 38.1015 3.57959 38.779 3.84239C39.4566 4.10518 40.0721 4.49155 40.5903 4.97924C41.1085 5.46693 41.519 6.0463 41.7982 6.68397C42.0774 7.32164 42.2198 8.005 42.2172 8.69469C42.2146 9.38439 42.067 10.0668 41.7829 10.7025C41.4989 11.3383 41.0839 11.9149 40.5621 12.3991L38.6749 14.1753L30.8196 6.78466L32.7067 5.00584ZM28.8311 8.65878L36.6864 16.0494L14.2427 37.1729C13.6688 37.7138 12.9429 38.0893 12.1502 38.2555L3.26268 40.1138L5.25393 31.6882C5.41987 30.9814 5.79674 30.3355 6.33956 29.8247L28.8311 8.65878Z" fill="black"/>
</svg>
