<svg width="45" height="44" viewBox="0 0 45 44" fill="none" xmlns="http://www.w3.org/2000/svg">
<path d="M16.376 0.0556641H4.12799C3.18055 0.0556641 2.27192 0.432034 1.60198 1.10198C0.932034 1.77192 0.555664 2.68055 0.555664 3.62799V15.876C0.555664 16.3451 0.648065 16.8096 0.827591 17.243C1.00712 17.6765 1.27025 18.0703 1.60198 18.402C1.9337 18.7337 2.32751 18.9969 2.76092 19.1764C3.19434 19.3559 3.65887 19.4483 4.12799 19.4483H16.376C16.8451 19.4483 17.3096 19.3559 17.743 19.1764C18.1765 18.9969 18.5703 18.7337 18.902 18.402C19.2337 18.0703 19.4969 17.6765 19.6764 17.243C19.8559 16.8096 19.9483 16.3451 19.9483 15.876V3.62799C19.9483 3.15887 19.8559 2.69434 19.6764 2.26092C19.4969 1.82751 19.2337 1.4337 18.902 1.10198C18.5703 0.770254 18.1765 0.507117 17.743 0.327591C17.3096 0.148065 16.8451 0.0556641 16.376 0.0556641ZM16.8863 15.876C16.8863 16.0113 16.8325 16.1411 16.7368 16.2368C16.6411 16.3325 16.5113 16.3863 16.376 16.3863H4.12799C3.99264 16.3863 3.86284 16.3325 3.76713 16.2368C3.67143 16.1411 3.61766 16.0113 3.61766 15.876V3.62799C3.61766 3.49264 3.67143 3.36284 3.76713 3.26713C3.86284 3.17143 3.99264 3.11766 4.12799 3.11766H16.376C16.5113 3.11766 16.6411 3.17143 16.7368 3.26713C16.8325 3.36284 16.8863 3.49264 16.8863 3.62799V15.876ZM16.376 24.5516H4.12799C3.18055 24.5516 2.27192 24.928 1.60198 25.5979C0.932034 26.2679 0.555664 27.1765 0.555664 28.124V40.3719C0.555664 41.3194 0.932034 42.228 1.60198 42.898C2.27192 43.5679 3.18055 43.9443 4.12799 43.9443H16.376C16.8451 43.9443 17.3096 43.8519 17.743 43.6723C18.1765 43.4928 18.5703 43.2297 18.902 42.898C19.2337 42.5662 19.4969 42.1724 19.6764 41.739C19.8559 41.3056 19.9483 40.8411 19.9483 40.3719V28.124C19.9483 27.6548 19.8559 27.1903 19.6764 26.7569C19.4969 26.3235 19.2337 25.9297 18.902 25.5979C18.5703 25.2662 18.1765 25.0031 17.743 24.8236C17.3096 24.644 16.8451 24.5516 16.376 24.5516ZM16.8863 40.3719C16.8863 40.5073 16.8325 40.6371 16.7368 40.7328C16.6411 40.8285 16.5113 40.8823 16.376 40.8823H4.12799C3.99264 40.8823 3.86284 40.8285 3.76713 40.7328C3.67143 40.6371 3.61766 40.5073 3.61766 40.3719V28.124C3.61766 27.9886 3.67143 27.8588 3.76713 27.7631C3.86284 27.6674 3.99264 27.6136 4.12799 27.6136H16.376C16.5113 27.6136 16.6411 27.6674 16.7368 27.7631C16.8325 27.8588 16.8863 27.9886 16.8863 28.124V40.3719ZM40.8719 0.0556641H28.624C27.6765 0.0556641 26.7679 0.432034 26.0979 1.10198C25.428 1.77192 25.0516 2.68055 25.0516 3.62799V15.876C25.0516 16.3451 25.144 16.8096 25.3236 17.243C25.5031 17.6765 25.7662 18.0703 26.0979 18.402C26.4297 18.7337 26.8235 18.9969 27.2569 19.1764C27.6903 19.3559 28.1548 19.4483 28.624 19.4483H40.8719C41.3411 19.4483 41.8056 19.3559 42.239 19.1764C42.6724 18.9969 43.0662 18.7337 43.398 18.402C43.7297 18.0703 43.9928 17.6765 44.1723 17.243C44.3519 16.8096 44.4443 16.3451 44.4443 15.876V3.62799C44.4443 2.68055 44.0679 1.77192 43.398 1.10198C42.728 0.432034 41.8194 0.0556641 40.8719 0.0556641ZM41.3823 15.876C41.3823 16.0113 41.3285 16.1411 41.2328 16.2368C41.1371 16.3325 41.0073 16.3863 40.8719 16.3863H28.624C28.4886 16.3863 28.3588 16.3325 28.2631 16.2368C28.1674 16.1411 28.1136 16.0113 28.1136 15.876V3.62799C28.1136 3.49264 28.1674 3.36284 28.2631 3.26713C28.3588 3.17143 28.4886 3.11766 28.624 3.11766H40.8719C41.0073 3.11766 41.1371 3.17143 41.2328 3.26713C41.3285 3.36284 41.3823 3.49264 41.3823 3.62799V15.876ZM25.0516 34.248V26.0826C25.0516 25.6766 25.2129 25.2872 25.5 25C25.7872 24.7129 26.1766 24.5516 26.5826 24.5516C26.9887 24.5516 27.3781 24.7129 27.6652 25C27.9523 25.2872 28.1136 25.6766 28.1136 26.0826V34.248C28.1136 34.654 27.9523 35.0434 27.6652 35.3305C27.3781 35.6176 26.9887 35.7789 26.5826 35.7789C26.1766 35.7789 25.7872 35.6176 25.5 35.3305C25.2129 35.0434 25.0516 34.654 25.0516 34.248ZM44.4443 30.1653C44.4443 30.5713 44.283 30.9608 43.9959 31.2479C43.7087 31.535 43.3193 31.6963 42.9133 31.6963H36.2789V42.4133C36.2789 42.8193 36.1176 43.2087 35.8305 43.4959C35.5434 43.783 35.154 43.9443 34.748 43.9443H26.5826C26.1766 43.9443 25.7872 43.783 25.5 43.4959C25.2129 43.2087 25.0516 42.8193 25.0516 42.4133C25.0516 42.0072 25.2129 41.6178 25.5 41.3307C25.7872 41.0436 26.1766 40.8823 26.5826 40.8823H33.217V26.0826C33.217 25.6766 33.3783 25.2872 33.6654 25C33.9525 24.7129 34.3419 24.5516 34.748 24.5516C35.154 24.5516 35.5434 24.7129 35.8305 25C36.1176 25.2872 36.2789 25.6766 36.2789 26.0826V28.6343H42.9133C43.3193 28.6343 43.7087 28.7956 43.9959 29.0827C44.283 29.3698 44.4443 29.7592 44.4443 30.1653ZM44.4443 38.3306V42.4133C44.4443 42.8193 44.283 43.2087 43.9959 43.4959C43.7087 43.783 43.3193 43.9443 42.9133 43.9443C42.5072 43.9443 42.1178 43.783 41.8307 43.4959C41.5436 43.2087 41.3823 42.8193 41.3823 42.4133V38.3306C41.3823 37.9246 41.5436 37.5351 41.8307 37.248C42.1178 36.9609 42.5072 36.7996 42.9133 36.7996C43.3193 36.7996 43.7087 36.9609 43.9959 37.248C44.283 37.5351 44.4443 37.9246 44.4443 38.3306Z" fill="black"/>
</svg>
