<svg width="45" height="46" viewBox="0 0 45 46" fill="none" xmlns="http://www.w3.org/2000/svg">
<path d="M22.5 45.5C16.25 45.5 10.9375 43.3125 6.5625 38.9375C2.1875 34.5625 0 29.25 0 23C0 16.75 2.1875 11.4375 6.5625 7.0625C10.9375 2.6875 16.25 0.5 22.5 0.5C23.0833 0.5 23.6567 0.520834 24.22 0.5625C24.7833 0.604167 25.335 0.666666 25.875 0.75C24.1667 1.95833 22.8017 3.53167 21.78 5.47C20.7583 7.40833 20.2483 9.50167 20.25 11.75C20.25 15.5 21.5625 18.6875 24.1875 21.3125C26.8125 23.9375 30 25.25 33.75 25.25C36.0417 25.25 38.1458 24.7392 40.0625 23.7175C41.9792 22.6958 43.5417 21.3317 44.75 19.625C44.8333 20.1667 44.8958 20.7183 44.9375 21.28C44.9792 21.8417 45 22.415 45 23C45 29.25 42.8125 34.5625 38.4375 38.9375C34.0625 43.3125 28.75 45.5 22.5 45.5Z" fill="#00337F"/>
</svg>
